<svg id="Layer_1" data-name="Layer 1" xmlns="http://www.w3.org/2000/svg" viewBox="0 0 58 58"><defs><style>.cls-1{fill:none;}.cls-2{fill:#de3434;}</style></defs><title>dashboard-red</title><path class="cls-1" d="M16,16H74V74H16Z" transform="translate(-16 -16)"/><path class="cls-2" d="M19,27a4,4,0,0,1,4-4H67a4,4,0,0,1,4,4V63a4,4,0,0,1-4,4H23a4,4,0,0,1-4-4Zm2,0V63a2,2,0,0,0,2,2H67a2,2,0,0,0,2-2V27a2,2,0,0,0-2-2H23A2,2,0,0,0,21,27Zm11,4a1,1,0,0,1,0-2H66a1,1,0,0,1,0,2ZM28,47a1,1,0,0,1,0-2H62a1,1,0,0,1,0,2Zm0,4a1,1,0,0,1,0-2H62a1,1,0,0,1,0,2Zm0,4a1,1,0,0,1,0-2H62a1,1,0,0,1,0,2Zm0-24a1,1,0,1,1,1-1A.9.9,0,0,1,28,31Zm-4,0a1,1,0,1,1,1-1A.9.9,0,0,1,24,31Zm0,6a1,1,0,0,1,0-2H66a1,1,0,0,1,0,2Z" transform="translate(-16 -16)"/></svg>