<svg width="90" height="90" viewBox="0 0 90 90" xmlns="http://www.w3.org/2000/svg"><title>ic_43_sd</title><g fill="none" fill-rule="evenodd"><path d="M16 16h58v58H16z"/><path d="M19 26.987A3.984 3.984 0 0 1 23.005 23h43.99C69.203 23 71 24.781 71 26.987v36.026A3.984 3.984 0 0 1 66.995 67h-43.99C20.797 67 19 65.219 19 63.013V26.987zm2 0v36.026C21 64.11 21.898 65 23.005 65h43.99C68.121 65 69 64.11 69 63.013V26.987A1.996 1.996 0 0 0 66.995 25h-43.99C21.879 25 21 25.89 21 26.987zM32 31a1 1 0 0 1 0-2h34a1 1 0 0 1 0 2H32zm-4 16a1 1 0 0 1 0-2h34a1 1 0 0 1 0 2H28zm0 4a1 1 0 0 1 0-2h34a1 1 0 0 1 0 2H28zm0 4a1 1 0 0 1 0-2h34a1 1 0 0 1 0 2H28zm0-24a1 1 0 1 1 0-2 1 1 0 0 1 0 2zm-4 0a1 1 0 1 1 0-2 1 1 0 0 1 0 2zm0 6a1 1 0 0 1 0-2h42a1 1 0 0 1 0 2H24z" fill="#333" fill-rule="nonzero"/></g></svg>