<svg width="90" height="90" viewBox="0 0 90 90" xmlns="http://www.w3.org/2000/svg"><title>ic_16_sd</title><g fill="none" fill-rule="evenodd"><path d="M16 16h58v58H16z"/><path d="M54.707 21.293A.997.997 0 0 1 55 22v9.033a1 1 0 0 0 1 1L58.989 32a1 1 0 0 1 .022 2l-2.978.033H56a3 3 0 0 1-3-3V23H27a1 1 0 0 0-1 1v42a1 1 0 0 0 1 1h36a1 1 0 0 0 1-1V33.071l-5.31-5.368a1 1 0 1 1 1.42-1.406L66 32.249V66a3 3 0 0 1-3 3H27a3 3 0 0 1-3-3V24a3 3 0 0 1 3-3h27c.276 0 .526.112.707.293zM34 40c0-.552.5-1 1.121-1H54.88c.619 0 1.121.464 1.121 1 0 .552-.5 1-1.121 1H35.12C34.502 41 34 40.536 34 40zm0 7c0-.552.5-1 1.121-1H54.88c.619 0 1.121.464 1.121 1 0 .552-.5 1-1.121 1H35.12C34.502 48 34 47.536 34 47zm0 7c0-.552.296-1 .663-1h11.674c.366 0 .663.464.663 1 0 .552-.296 1-.663 1H34.663c-.366 0-.663-.464-.663-1zm18 3a3 3 0 1 1 0-6 3 3 0 0 1 0 6zm0-2a1 1 0 1 0 0-2 1 1 0 0 0 0 2z" fill="#333" fill-rule="nonzero"/></g></svg>