<?xml version="1.0" encoding="UTF-8"?>
<svg width="24px" height="24px" viewBox="0 0 24 24" version="1.1" xmlns="http://www.w3.org/2000/svg" xmlns:xlink="http://www.w3.org/1999/xlink">
    <!-- Generator: Sketch 57.1 (83088) - https://sketch.com -->
    <title>Icons/24px/docs</title>
    <desc>Created with Sketch.</desc>
    <g id="1.-Intro" stroke="none" stroke-width="1" fill="none" fill-rule="evenodd">
        <g id="03" transform="translate(-397.000000, -537.000000)">
            <g id="Icons/24px/docs" transform="translate(397.000000, 537.000000)">
                <path d="M5,3 L5,20 L18,20 L18,3 L5,3 Z M20,1 L20,22 L3,22 L3,1 L20,1 Z M16,5 L16,7 L7,7 L7,5 L16,5 Z M16,9 L16,11 L7,11 L7,9 L16,9 Z M16,13 L16,15 L7,15 L7,13 L16,13 Z" id="Combined-Shape" fill="#525A65" fill-rule="evenodd"></path>
                <path d="M0.00499895812,0.005 L0,23.995 L23.995,24 L24,0.005 L0.00499895812,0.005 Z" id="Path" stroke-opacity="0.01" stroke="#000000" stroke-width="0.01"></path>
            </g>
        </g>
    </g>
</svg>