<svg width="90" height="90" viewBox="0 0 90 90" xmlns="http://www.w3.org/2000/svg"><title>ic_12_sd</title><g fill="none" fill-rule="evenodd"><path d="M16 16h58v58H16z"/><path d="M52.605 44.806l-5.489 5.487a3 3 0 0 1-4.242 0l-5.483-5.484L20.99 58.477v3.573a1 1 0 0 0 1 1l46.011-.048a1 1 0 0 0 .999-1v-3.534L52.605 44.806zM69 55.865V34a1 1 0 0 1 2 0v28.002a3 3 0 0 1-2.997 3l-46.01.048a3 3 0 0 1-3.003-3V28a3 3 0 0 1 3-3h45.595A2 2 0 0 1 69 28.414L54.025 43.386 69 55.865zm-48.01.008L35.972 43.39l-11.68-11.682a1 1 0 1 1 1.415-1.414l18.581 18.586a1 1 0 0 0 1.414 0L67.585 27H21.99a1 1 0 0 0-1 1v27.873zM36 57h18a1 1 0 0 1 0 2H36a1 1 0 0 1 0-2z" fill="#333" fill-rule="nonzero"/></g></svg>