<svg width="90" height="90" viewBox="0 0 90 90" xmlns="http://www.w3.org/2000/svg"><title>ic_96_sd</title><g fill="none" fill-rule="evenodd"><path d="M16 16h58v58H16z"/><path d="M50.571 63.379a2 2 0 0 1-2.385.317l-2.204-1.242a2 2 0 0 0-1.964 0l-2.204 1.242a2 2 0 0 1-2.311-.248l-3.554 6.56a2.02 2.02 0 0 1-3.446.161l-2.585-3.853a1.007 1.007 0 0 0-.712-.437l-5.443-.677a2.02 2.02 0 0 1-.934-.367 1.992 1.992 0 0 1-.444-2.793l5.134-7.017-.82-.23a2 2 0 0 1-1.448-2.166l.304-2.512a2 2 0 0 0-.752-1.814l-1.99-1.561a2 2 0 0 1-.51-2.556l1.243-2.204a2 2 0 0 0 0-1.964l-1.242-2.204a2 2 0 0 1 .508-2.556l1.991-1.561a2 2 0 0 0 .752-1.814l-.304-2.512a2 2 0 0 1 1.447-2.167l2.437-.68a2 2 0 0 0 1.389-1.389l.68-2.437a2 2 0 0 1 2.167-1.447l2.512.304a2 2 0 0 0 1.814-.752l1.561-1.99a2 2 0 0 1 2.556-.51l2.204 1.243a2 2 0 0 0 1.964 0l2.204-1.242a2 2 0 0 1 2.556.508l1.561 1.991a2 2 0 0 0 1.814.752l2.512-.304a2 2 0 0 1 2.167 1.447l.68 2.437a2 2 0 0 0 1.389 1.389l2.437.68a2 2 0 0 1 1.447 2.167l-.304 2.512a2 2 0 0 0 .752 1.814l1.99 1.561a2 2 0 0 1 .51 2.556l-1.243 2.204a2 2 0 0 0 0 1.964l1.242 2.204a2 2 0 0 1-.508 2.556l-1.991 1.561a2 2 0 0 0-.752 1.814l.304 2.512a2 2 0 0 1-1.447 2.167l-2.437.68a2 2 0 0 0-1.389 1.389l-.68 2.437a2 2 0 0 1-2.167 1.447l-2.512-.304a2 2 0 0 0-1.814.752l-.358.457 3.726 7.452 3.274-4.366a2 2 0 0 1 1.352-.785l5.806-.726-2.884-3.604a1 1 0 1 1 1.562-1.25l2.884 3.605a2 2 0 0 1-1.314 3.234l-5.806.726-3.274 4.366A2 2 0 0 1 53.882 70l-3.31-6.621zm-12.436-1.624l-.438-.558a2 2 0 0 0-1.814-.752l-2.512.304a2 2 0 0 1-2.167-1.447l-.68-2.437a2 2 0 0 0-.971-1.22l-5.54 7.573 5.443.676a3.02 3.02 0 0 1 2.137 1.313l2.584 3.853 3.958-7.305zm1.136-1.792l1.561 1.99 2.205-1.241a4 4 0 0 1 3.926 0l2.205 1.242 1.561-1.991a4 4 0 0 1 3.628-1.503l2.512.304.681-2.438a4 4 0 0 1 2.776-2.776l2.438-.68-.304-2.513a4 4 0 0 1 1.503-3.628l1.99-1.561-1.241-2.205a4 4 0 0 1 0-3.926l1.242-2.205-1.991-1.561a4 4 0 0 1-1.503-3.628l.304-2.512-2.438-.681a4 4 0 0 1-2.776-2.776l-.68-2.438-2.513.304a4 4 0 0 1-3.628-1.503l-1.561-1.99-2.205 1.241a4 4 0 0 1-3.926 0l-2.205-1.242-1.561 1.991a4 4 0 0 1-3.628 1.503l-2.512-.304-.681 2.438a4 4 0 0 1-2.776 2.776l-2.438.68.304 2.513a4 4 0 0 1-1.503 3.628l-1.99 1.561 1.241 2.205a4 4 0 0 1 0 3.926l-1.242 2.205 1.991 1.561a4 4 0 0 1 1.503 3.628l-.304 2.512 2.438.681a4 4 0 0 1 2.776 2.776l.68 2.438 2.513-.304a4 4 0 0 1 3.628 1.503zM45 57c-8.837 0-16-7.163-16-16s7.163-16 16-16 16 7.163 16 16-7.163 16-16 16zm0-2c7.732 0 14-6.268 14-14s-6.268-14-14-14-14 6.268-14 14 6.268 14 14 14zm-6.15-13.324H36.41V45H35v-8h4.28v1.253H36.41v2.176h2.442v1.247zm2.581.143V45h-1.404v-7.995h2.348c.709 0 1.265.208 1.668.624.404.416.606.994.606 1.734 0 .417-.084.777-.252 1.08a1.846 1.846 0 0 1-.737.722c.37.139.636.37.799.692.163.322.244.725.244 1.209v.566c0 .22.023.455.07.706.046.25.126.433.242.547V45h-1.453c-.116-.117-.188-.308-.218-.571a7.223 7.223 0 0 1-.044-.808v-.544c0-.4-.074-.709-.22-.929a.713.713 0 0 0-.63-.33H41.43zm0-1.248h.94c.286 0 .503-.097.652-.29.148-.195.222-.471.222-.83 0-.367-.074-.658-.222-.874-.149-.216-.364-.324-.648-.324h-.944v2.318zm8.161.918h-2.417v2.264h2.842V45h-4.25v-8h4.24v1.253h-2.832v1.989h2.417v1.247zm4.983 0h-2.417v2.264H55V45h-4.251v-8h4.241v1.253h-2.832v1.989h2.417v1.247z" fill="#333" fill-rule="nonzero"/></g></svg>