<svg width="90" height="90" viewBox="0 0 90 90" xmlns="http://www.w3.org/2000/svg"><title>ic_29_sd</title><g fill="none" fill-rule="evenodd"><path d="M16 16h58v58H16z"/><path d="M43.007 65.58C31.029 54.93 25 46.115 25 39c0-11.046 8.954-20 20-20s20 8.954 20 20c0 7.116-6.029 15.93-18.007 26.58a3 3 0 0 1-3.986 0zm2.657-1.495C57.248 53.785 63 45.377 63 39c0-9.941-8.059-18-18-18s-18 8.059-18 18c0 6.377 5.752 14.785 17.336 25.085a1 1 0 0 0 1.328 0zm5.585-18.608l.003-.003A9 9 0 1 0 36 39v.004c0 2.25.84 4.502 2.526 6.248a1 1 0 0 1-1.439 1.39A10.964 10.964 0 0 1 34 38.931a10.967 10.967 0 0 1 3.536-8.012A10.96 10.96 0 0 1 45.068 28a10.967 10.967 0 0 1 8.012 3.536A10.96 10.96 0 0 1 56 39.068a10.967 10.967 0 0 1-3.31 7.798A10.964 10.964 0 0 1 45 50a1 1 0 1 1 0-2 8.97 8.97 0 0 0 6.249-2.523zM19.5 69h51a.5.5 0 0 1 .5.5v1a.5.5 0 0 1-.5.5h-51a.5.5 0 0 1-.5-.5v-1a.5.5 0 0 1 .5-.5z" fill="#333"/></g></svg>