<svg width="90" height="90" viewBox="0 0 90 90" xmlns="http://www.w3.org/2000/svg"><title>ic_65_sd</title><g fill="none" fill-rule="evenodd"><path d="M16 16h58v58H16z"/><path d="M66.732 48.113c-.893 3.93-3.413 7.365-7.521 10.269l2.219 5.916A2 2 0 0 1 59.557 67h-6.88a2 2 0 0 1-1.857-1.257l-1.44-3.6-4.184.838a1 1 0 0 1-.392-1.962l4.184-.836a2 2 0 0 1 2.25 1.218L52.676 65h6.88l-2.219-5.916a2 2 0 0 1 .719-2.336c5.269-3.724 7.55-8.234 6.952-13.616C63.754 33.72 55.889 29 41 29h-.468l-.3-.36c-3.072-3.685-5.63-4.823-7.785-3.746-.522.262-.637.44-.62.758.02.373.055.473.675 2.024 1.395 3.485 1.216 6.02-1.795 9.031-2.45 2.45-5.438 4.104-8.943 4.953a1 1 0 0 0-.764.972V51a1 1 0 0 0 1 1h11a1 1 0 0 1 0 2h-6.023c.03 1.161.286 1.909.73 2.293.398.398 1.891.94 4.327 1.482a2 2 0 0 1 1.405 2.74L31.517 65h6.702l.81-3.243a1 1 0 0 1 1.941.486l-.81 3.242A2 2 0 0 1 38.22 67h-6.703a2 2 0 0 1-1.839-2.788l1.922-4.485c-2.82-.626-4.538-1.25-5.25-1.968-.907-.776-1.339-2.038-1.373-3.759H22a3 3 0 0 1-3-3v-8.368a3 3 0 0 1 2.294-2.915c3.15-.764 5.811-2.236 7.999-4.424 2.359-2.359 2.478-4.06 1.352-6.874-.759-1.898-.778-1.953-.815-2.662-.06-1.147.517-2.048 1.723-2.651 3.09-1.545 6.426-.144 9.911 3.896 15.487.103 24.13 5.383 25.53 15.888.1.9.13 1.78.088 2.64l.012.023C67.578 46.52 68.49 47 70 47a1 1 0 0 1 0 2c-1.309 0-2.41-.296-3.268-.887zm-2.04-16.931a1 1 0 0 1-1.88-.684 7 7 0 1 0-13.155-4.789 1 1 0 1 1-1.88-.684 9 9 0 0 1 16.915 6.157zM35 41a2 2 0 1 1 0-4 2 2 0 0 1 0 4zM19.5 69h51a.5.5 0 0 1 .5.5v1a.5.5 0 0 1-.5.5h-51a.5.5 0 0 1-.5-.5v-1a.5.5 0 0 1 .5-.5z" fill="#333" fill-rule="nonzero"/></g></svg>