<?xml version="1.0" encoding="UTF-8"?>
<svg width="24px" height="24px" viewBox="0 0 24 24" version="1.1" xmlns="http://www.w3.org/2000/svg" xmlns:xlink="http://www.w3.org/1999/xlink">
    <!-- Generator: Sketch 57.1 (83088) - https://sketch.com -->
    <title>Icons/24px/pdf</title>
    <desc>Created with Sketch.</desc>
    <g id="1.-Intro" stroke="none" stroke-width="1" fill="none" fill-rule="evenodd">
        <g id="03" transform="translate(-1173.000000, -609.000000)">
            <g id="Icons/24px/pdf" transform="translate(1173.000000, 609.000000)">
                <path d="M4,2 L4,21 L18,21 L20,21 L20,11 L18,11 L18,2 L4,2 Z M20,0 L20,23 L2,23 L2,0 L20,0 Z M6.5,18.5 L7,18 L6,18 L6.5,18.5 Z M7,16 L9.00082893,16 C9.00032257,15.9999559 9,15.9992579 9,15.9906311 L9,14.0093689 C9,13.9999121 9.00008843,14 8.9906311,14 L7,14 L7,16 Z M6,19 L6,13 L8.9906311,13 C9.54809015,13 10,13.4433532 10,14.0093689 L10,15.9906311 C10,16.5480902 9.55733967,17 9.00104344,17 L7,17 L7,19 L6,19 Z M16,19 L16,13 L20,13 L20,14 L17,14 L16.9859009,15.9859009 L19,16 L19,17 L17,17 L17,19 L16,19 Z M12,18 L13,18 C13.5569631,18 14,17.5562452 14,17.0020869 L14,14.9979131 C14,14.4491878 13.5509275,14 13,14 L12,14 L12,18 Z M11,19 L11,13 L13,13 C14.1045695,13 15,13.8982606 15,14.9979131 L15,17.0020869 C15,18.1055038 14.1122704,19 13,19 L11,19 Z" id="Combined-Shape" fill="#525A65" fill-rule="evenodd"></path>
                <path d="M0.00499895812,0.005 L0,23.995 L23.995,24 L24,0.005 L0.00499895812,0.005 Z" id="Path" stroke-opacity="0.01" stroke="#000000" stroke-width="0.01"></path>
            </g>
        </g>
    </g>
</svg>