<svg width="90" height="90" viewBox="0 0 90 90" xmlns="http://www.w3.org/2000/svg"><title>ic_19_sd</title><g fill="none" fill-rule="evenodd"><path d="M16 16h58v58H16z"/><path d="M19 26.984A3.998 3.998 0 0 1 22.984 23h44.032A3.998 3.998 0 0 1 71 26.984v36.032A3.998 3.998 0 0 1 67.016 67H22.984A3.998 3.998 0 0 1 19 63.016V26.984zm2 0v36.032C21 64.09 21.888 65 22.984 65h44.032A1.998 1.998 0 0 0 69 63.016V26.984A1.998 1.998 0 0 0 67.016 25H22.984A1.998 1.998 0 0 0 21 26.984zM38 31a1 1 0 0 1 0-2h14a1 1 0 0 1 0 2H38zm-12 6a1 1 0 0 1 0-2h38a1 1 0 0 1 0 2H26zm0-6a1 1 0 1 1 0-2h2a1 1 0 1 1 0 2h-2zm36 0a1 1 0 0 1 0-2h2a1 1 0 0 1 0 2h-2zM49 44a1 1 0 0 1 0-2h15a1 1 0 0 1 0 2H49zM26 60a1 1 0 0 1 0-2h15a1 1 0 0 1 0 2H26zm0-8a1 1 0 0 1 0-2h7a1 1 0 0 1 0 2h-7zm21 0a1 1 0 0 1 0-2h17a1 1 0 0 1 0 2H47zm-7 3a4 4 0 1 1 0-8 4 4 0 0 1 0 8zm0-2a2 2 0 1 0 0-4 2 2 0 0 0 0 4z" fill="#333" fill-rule="nonzero"/></g></svg>