<svg width="90" height="90" viewBox="0 0 90 90" xmlns="http://www.w3.org/2000/svg"><title>ic_95_sd</title><g fill="none" fill-rule="evenodd"><path d="M16 16h58v58H16z"/><path d="M30.326 54.59l-6.314 8.628 5.444.676a3.02 3.02 0 0 1 2.137 1.313l2.584 3.853 4.857-8.965c.655.205 1.325.376 2.007.513l-5.092 9.4a2.02 2.02 0 0 1-3.446.161l-2.585-3.853a1.007 1.007 0 0 0-.712-.437l-5.443-.677a2.02 2.02 0 0 1-.934-.367 1.992 1.992 0 0 1-.444-2.793L29 53.002c.414.552.857 1.082 1.326 1.587zm21.532 7.32l3.72 7.283 3.55-4.236a3.023 3.023 0 0 1 1.915-1.052l4.945-.664-2.581-3.545a.996.996 0 0 1 .182-1.403 1.01 1.01 0 0 1 1.411.181l2.58 3.545c.68.875.517 2.13-.363 2.805-.28.214-.61.352-.96.399l-4.944.664c-.25.033-.477.159-.638.35l-3.552 4.236a2.02 2.02 0 0 1-3.34-.375l-3.903-7.641c-1.57.355-3.203.543-4.88.543-12.15 0-22-9.85-22-22s9.85-22 22-22 22 9.85 22 22c0 9.756-6.35 18.028-15.142 20.91zM45 61c11.046 0 20-8.954 20-20s-8.954-20-20-20-20 8.954-20 20 8.954 20 20 20zm0-4c-8.837 0-16-7.163-16-16s7.163-16 16-16 16 7.163 16 16-7.163 16-16 16zm0-2c7.732 0 14-6.268 14-14s-6.268-14-14-14-14 6.268-14 14 6.268 14 14 14zm-6.658-12.142c0-.302-.071-.542-.215-.718-.143-.176-.395-.35-.756-.52-.738-.282-1.291-.601-1.66-.96-.37-.357-.554-.858-.554-1.502 0-.638.214-1.157.644-1.557.429-.4.977-.601 1.644-.601.676 0 1.226.223 1.648.67.423.447.628 1.01.615 1.69l-.01.033h-1.346c0-.357-.081-.645-.244-.866-.163-.22-.392-.33-.688-.33-.276 0-.492.09-.646.274a1.037 1.037 0 0 0-.232.692.84.84 0 0 0 .259.633c.172.165.471.35.897.552.673.25 1.18.566 1.52.948.34.383.51.9.51 1.552 0 .673-.205 1.2-.615 1.58-.41.382-.955.572-1.634.572a2.588 2.588 0 0 1-1.759-.649c-.496-.432-.735-1.053-.72-1.861l.01-.032h1.352c0 .48.092.826.278 1.036.185.21.465.315.839.315.292 0 .51-.085.65-.256.142-.171.213-.403.213-.695zm5.449.38h-1.873l-.38 1.65h-1.4l2-7.776h1.443l1.995 7.776h-1.4l-.385-1.65zm-1.59-1.223h1.307l-.64-2.75h-.029l-.639 2.75zm5.316 1.66h2.595v1.213h-3.985v-7.776h1.39v6.564zm7.064-2.2h-2.386v2.2H55v1.213h-4.195v-7.776h4.185v1.218h-2.795v1.933h2.386v1.212z" fill="#333" fill-rule="nonzero"/></g></svg>