<svg id="Layer_1" data-name="Layer 1" xmlns="http://www.w3.org/2000/svg" viewBox="0 0 58 58"><defs><style>.cls-1{fill:none;}.cls-2{fill:#fff;fill-rule:evenodd;}</style></defs><title>save</title><path class="cls-1" d="M16,16H74V74H16Z" transform="translate(-16 -16)"/><path class="cls-2" d="M34,24V35H54a1,1,0,0,1,1,1,.9.9,0,0,1-1,1H34a2,2,0,0,1-2-2V24H25a.9.9,0,0,0-1,1V52a1,1,0,0,1-2,0V25a2.9,2.9,0,0,1,3-3H57.4L68,32.6V65a2.9,2.9,0,0,1-3,3H25a2.9,2.9,0,0,1-3-3V62a1,1,0,0,1,2,0v3a.9.9,0,0,0,1,1H65a.9.9,0,0,0,1-1V33.4L56.6,24Zm4,30H52a1,1,0,0,1,0,2H38a1,1,0,0,1,0-2Zm0,4H52a1,1,0,0,1,0,2H38a1,1,0,0,1,0-2Zm-4,8H32V48a2,2,0,0,1,2-2H56a2,2,0,0,1,2,2V66H56V48H34Z" transform="translate(-16 -16)"/></svg>