<svg width="90" height="90" viewBox="0 0 90 90" xmlns="http://www.w3.org/2000/svg"><title>ic_01_sd</title><g fill="none" fill-rule="evenodd"><path d="M16 16h58v58H16z"/><path d="M54.78 61.125l6.685 6.76a4.536 4.536 0 1 0 6.07-6.74L63.63 57.06a1 1 0 1 1 1.339-1.487l3.904 4.085a6.536 6.536 0 1 1-8.746 9.714l-7.037-7.117C49.751 63.982 45.994 65 42 65c-12.703 0-23-10.297-23-23s10.297-23 23-23 23 10.297 23 23c0 7.973-4.057 14.999-10.22 19.125zM42 63c11.598 0 21-9.402 21-21s-9.402-21-21-21-21 9.402-21 21 9.402 21 21 21zM27.477 45.767a1 1 0 0 1 1.936-.5A13.005 13.005 0 0 0 42 55c7.18 0 13-5.82 13-13s-5.82-13-13-13a13.005 13.005 0 0 0-12.307 8.802 1 1 0 1 1-1.893-.646A15.005 15.005 0 0 1 42 27c8.284 0 15 6.716 15 15 0 8.284-6.716 15-15 15a15.005 15.005 0 0 1-14.523-11.233z" fill="#333"/></g></svg>