<svg width="90" height="90" viewBox="0 0 90 90" xmlns="http://www.w3.org/2000/svg"><title>ic_13_sd</title><g fill="none" fill-rule="evenodd"><path d="M16 16h58v58H16z"/><path d="M42.039 47.705a1 1 0 0 1-.895 1.789l-18.308-9.155a3 3 0 0 1 .392-5.529l18.754-6.251a1 1 0 0 1 .633 1.897L23.86 36.707a1 1 0 0 0-.131 1.843l18.309 9.155zm.763 1.098l8.207 16.937a1 1 0 0 0 1.846-.112L66.929 24.48a1 1 0 0 0-1.254-1.275l-15.21 4.927a1 1 0 0 1-.616-1.902l15.21-4.928a3 3 0 0 1 3.762 3.825L54.747 66.275a3 3 0 0 1-5.538.337L40.38 48.395l15.353-15.352a1 1 0 0 1 1.414 1.414L42.802 48.803zm-8.19 6.532l-11.749-6.22a1 1 0 1 1 .936-1.768l12.293 6.508L42.6 66.148a1 1 0 0 1-1.768.936l-6.22-11.75z" fill="#333" fill-rule="nonzero"/></g></svg>