<?xml version="1.0" encoding="UTF-8"?>
<svg width="24px" height="24px" viewBox="0 0 24 24" version="1.1" xmlns="http://www.w3.org/2000/svg" xmlns:xlink="http://www.w3.org/1999/xlink">
    <!-- Generator: Sketch 57.1 (83088) - https://sketch.com -->
    <title>Icons/24px/customers</title>
    <desc>Created with Sketch.</desc>
    <g id="1.-Intro" stroke="none" stroke-width="1" fill="none" fill-rule="evenodd">
        <g id="03" transform="translate(-688.000000, -740.000000)">
            <g id="Icons/24px/customers" transform="translate(688.000000, 740.000000)">
                <path d="M6,17 L6,18 L3,18 L3,17 L6,17 Z M14.092691,13 C15.1451376,13 16.2296061,13.7746495 16.598262,14.772055 L16.6504132,14.9313108 L17,17 L15.0753174,17 C15.0753174,17 14.7909159,15.2160494 14.2001319,15.0178326 L14.092691,15 L12.0059191,15 C11.3790141,15 11.0101538,16.7839506 10.9711042,16.9821674 L10.9676514,17 L9,17 L9.44819692,14.9313108 C9.73943255,13.9119861 10.7858405,13.0863703 11.8395862,13.0063571 L12.0059191,13 L14.092691,13 Z M6,14 L6,15 L3,15 L3,14 L6,14 Z M6,11 L6,12 L3,12 L3,11 L6,11 Z M6,8 L6,9 L3,9 L3,8 L6,8 Z M6,5 L6,6 L3,6 L3,5 L6,5 Z M13,10 L13,10 C13.5522847,10 14,9.55228475 14,9 C14,8.44771525 13.5522847,8 13,8 C12.4477153,8 12,8.44771525 12,9 C12,9.55228475 12.4477153,10 13,10 L13,10 Z M19.0074602,1 C20.6601943,1 22,2.34559019 22,4.00878799 L22,4.00878799 L22,18.991212 C22,20.6529197 20.6470745,22 19.0074602,22 L19.0074602,22 L4,22 L4,20 L19.0074602,20 C19.5459642,20 20,19.5448773 20,18.991212 L20,18.991212 L20,4.00878799 C20,3.44840956 19.5538593,3 19.0074602,3 L19.0074602,3 L4,3 L4,1 Z M13,6 C14.6568542,6 16,7.34314575 16,9 C16,10.5976809 14.75108,11.9036609 13.1762728,11.9949073 L13,12 C11.3431458,12 10,10.6568542 10,9 C10,7.34314575 11.3431458,6 13,6 Z" id="Combined-Shape" fill="#525A65" fill-rule="evenodd"></path>
                <polygon id="Path" points="0 0 24 0 24 24 0 24"></polygon>
                <path d="M0.00499895812,0.005 L0,23.995 L23.995,24 L24,0.005 L0.00499895812,0.005 Z" id="Path" stroke-opacity="0.01" stroke="#000000" stroke-width="0.01"></path>
            </g>
        </g>
    </g>
</svg>