<?xml version="1.0" encoding="UTF-8"?>
<svg width="24px" height="24px" viewBox="0 0 24 24" version="1.1" xmlns="http://www.w3.org/2000/svg" xmlns:xlink="http://www.w3.org/1999/xlink">
    <!-- Generator: Sketch 57.1 (83088) - https://sketch.com -->
    <title>Icons/24px/doc</title>
    <desc>Created with Sketch.</desc>
    <g id="1.-Intro" stroke="none" stroke-width="1" fill="none" fill-rule="evenodd">
        <g id="03" transform="translate(-1076.000000, -609.000000)">
            <g id="Icons/24px/doc" transform="translate(1076.000000, 609.000000)">
                <path d="M4,2 L4,21 L18,21 L20,21 L20,11 L18,11 L18,2 L4,2 Z M20,0 L20,23 L2,23 L2,0 L20,0 Z M7,18 L8,18 C8.55696315,18 9,17.5562452 9,17.0020869 L9,14.9979131 C9,14.4491878 8.55092748,14 8,14 L7,14 L7,18 Z M6,19 L6,13 L8,13 C9.1045695,13 10,13.8982606 10,14.9979131 L10,17.0020869 C10,18.1055038 9.11227036,19 8,19 L6,19 Z M20,19 L18,19 C16.8877296,19 16,18.1055038 16,17.0020869 L16,14.9979131 C16,13.8982606 16.8954305,13 18,13 L20,13 L20,14 L19.0010434,14 C17.9000989,14 17,14.8954305 17,16 C17,17.1122704 17.8958977,18 19.0010434,18 L20,18 L20,19 Z M13,18 C13.5569631,18 14,17.5562452 14,17.0020869 L14,14.9979131 C14,14.4491878 13.5509275,14 13,14 C12.4430369,14 12,14.4437548 12,14.9979131 L12,17.0020869 C12,17.5508122 12.4490725,18 13,18 Z M13,19 C11.8954305,19 11,18.1017394 11,17.0020869 L11,14.9979131 C11,13.8944962 11.8877296,13 13,13 C14.1045695,13 15,13.8982606 15,14.9979131 L15,17.0020869 C15,18.1055038 14.1122704,19 13,19 Z" id="Combined-Shape" fill="#525A65" fill-rule="evenodd"></path>
                <path d="M0.00499895812,0.005 L0,23.995 L23.995,24 L24,0.005 L0.00499895812,0.005 Z" id="Path" stroke-opacity="0.01" stroke="#000000" stroke-width="0.01"></path>
            </g>
        </g>
    </g>
</svg>