<?xml version="1.0" encoding="UTF-8"?>
<svg width="24px" height="24px" viewBox="0 0 24 24" version="1.1" xmlns="http://www.w3.org/2000/svg" xmlns:xlink="http://www.w3.org/1999/xlink">
    <!-- Generator: Sketch 57.1 (83088) - https://sketch.com -->
    <title>Icons/24px/pin</title>
    <desc>Created with Sketch.</desc>
    <g id="1.-Intro" stroke="none" stroke-width="1" fill="none" fill-rule="evenodd">
        <g id="03" transform="translate(-979.000000, -609.000000)">
            <g id="Icons/24px/pin" transform="translate(979.000000, 609.000000)">
                <path d="M12,1 C15.8659932,1 19,4.13400675 19,8 C19,9.41518086 18.1776866,11.7651122 16.7254867,14.9328059 C16.46655,15.4976263 16.1904193,16.0810849 15.8993719,16.6798251 C15.2370795,18.042287 14.5283389,19.4220164 13.8196543,20.7494508 C13.5716226,21.2140379 13.3412207,21.6390774 13.1342872,22.0157992 C13.0097022,22.242606 12.9203111,22.4034615 12.8719602,22.4895768 L12,24.0425802 L11.1280398,22.4895768 C11.0796889,22.4034615 10.9902978,22.242606 10.8657128,22.0157992 C10.6587793,21.6390774 10.4283774,21.2140379 10.1803457,20.7494508 C9.47166108,19.4220164 8.76292051,18.042287 8.10062813,16.6798251 C7.80958067,16.0810849 7.53344998,15.4976263 7.27451332,14.9328059 C5.82231342,11.7651122 5,9.41518086 5,8 C5,4.13400675 8.13400675,1 12,1 Z M12,3 C9.23857625,3 7,5.23857625 7,8 C7,9.01433131 7.76946779,11.2132453 9.09256899,14.0993351 C9.34496258,14.649883 9.61468236,15.2197956 9.89937187,15.8054562 C10.5495795,17.1430575 11.2470889,18.5009228 11.9446543,19.8075297 L12,19.9110874 C12.0183457,19.8767973 12.0367951,19.8422768 12.0553457,19.8075297 C12.7529111,18.5009228 13.4504205,17.1430575 14.1006281,15.8054562 C14.3853176,15.2197956 14.6550374,14.649883 14.907431,14.0993351 C16.2305322,11.2132453 17,9.01433131 17,8 C17,5.23857625 14.7614237,3 12,3 Z M12,6 C13.1045695,6 14,6.8954305 14,8 C14,9.1045695 13.1045695,10 12,10 C10.8954305,10 10,9.1045695 10,8 C10,6.8954305 10.8954305,6 12,6 Z" id="Combined-Shape" fill="#525A65" fill-rule="evenodd"></path>
                <path d="M0.00499895812,0.005 L0,23.995 L23.995,24 L24,0.005 L0.00499895812,0.005 Z" id="Path" stroke-opacity="0.01" stroke="#000000" stroke-width="0.01"></path>
            </g>
        </g>
    </g>
</svg>