<?xml version="1.0" encoding="UTF-8"?>
<svg width="24px" height="24px" viewBox="0 0 24 24" version="1.1" xmlns="http://www.w3.org/2000/svg" xmlns:xlink="http://www.w3.org/1999/xlink">
    <!-- Generator: Sketch 57.1 (83088) - https://sketch.com -->
    <title>Icons/24px/settings2</title>
    <desc>Created with Sketch.</desc>
    <g id="1.-Intro" stroke="none" stroke-width="1" fill="none" fill-rule="evenodd">
        <g id="03" transform="translate(-882.000000, -882.000000)">
            <g id="Icons/24px/settings2" transform="translate(882.000000, 882.000000)">
                <path d="M15.5468917,5.88719264 C15.0859798,6.06446646 14.5646766,5.87874849 14.3196694,5.44998597 L12.9196775,3 L11.0803225,3 L9.68033055,5.44998597 C9.4353234,5.87874849 8.91402025,6.06446646 8.45310833,5.88719264 L6.23716947,5.03490847 L5.03490847,6.23716947 L6.01039794,8.77344211 C6.20153709,9.2704039 5.96975164,9.82998347 5.4831908,10.0462327 L3,11.1498731 L3,12.8501269 L5.16956131,13.8143764 C5.62082677,14.0149388 5.85812133,14.5148782 5.72818667,14.9913053 L4.9857288,17.7136509 L6.28634914,19.0142712 L9.00869466,18.2718133 C9.48512177,18.1418787 9.98506119,18.3791732 10.1856236,18.8304387 L11.1498731,21 L12.8501269,21 L13.8143764,18.8304387 C14.0149388,18.3791732 14.5148782,18.1418787 14.9913053,18.2718133 L17.7136509,19.0142712 L19.0142712,17.7136509 L18.3546125,15.2949024 C18.2346524,14.8550485 18.4273891,14.3897408 18.8232374,14.1635418 L21,12.9196775 L21,11.0803225 L18.550014,9.68033055 C18.1212515,9.4353234 17.9355335,8.91402025 18.1128074,8.45310833 L18.9650915,6.23716947 L17.7628305,5.03490847 L15.5468917,5.88719264 Z M15.6302171,3.71231544 L17.6514286,2.93492641 C18.0202762,2.79306193 18.4380738,2.88172461 18.7175144,3.16116524 L20.8388348,5.28248558 C21.1182754,5.5619262 21.2069381,5.97972379 21.0650736,6.34857144 L20.2876846,8.36978293 L22.4961389,9.63175686 C22.8077139,9.80979971 23,10.1411432 23,10.5 L23,13.5 C23,13.8588568 22.8077139,14.1902003 22.4961389,14.3682431 L20.487905,15.5158054 L21.0964918,17.7472902 C21.1909133,18.0935023 21.0925849,18.4637643 20.8388348,18.7175144 L18.7175144,20.8388348 C18.4637643,21.0925849 18.0935023,21.1909133 17.7472902,21.0964918 L15.2933268,20.4272291 L14.4138115,22.4061385 C14.2533102,22.7672665 13.8951887,23 13.5,23 L10.5,23 C10.1048113,23 9.74668979,22.7672665 9.58618845,22.4061385 L8.70667316,20.4272291 L6.25270977,21.0964918 C5.90649766,21.1909133 5.53623569,21.0925849 5.28248558,20.8388348 L3.16116524,18.7175144 C2.90741512,18.4637643 2.80908671,18.0935023 2.9035082,17.7472902 L3.57277094,15.2933268 L1.59386153,14.4138115 C1.23273352,14.2533102 1,13.8951887 1,13.5 L1,10.5 C1,10.1048113 1.23273352,9.74668979 1.59386153,9.58618845 L3.80260136,8.60452631 L2.93492641,6.34857144 C2.79306193,5.97972379 2.88172461,5.5619262 3.16116524,5.28248558 L5.28248558,3.16116524 C5.5619262,2.88172461 5.97972379,2.79306193 6.34857144,2.93492641 L8.36978293,3.71231544 L9.63175686,1.50386106 C9.80979971,1.19228606 10.1411432,1 10.5,1 L13.5,1 C13.8588568,1 14.1902003,1.19228606 14.3682431,1.50386106 L15.6302171,3.71231544 Z M12,16 C9.790861,16 8,14.209139 8,12 C8,9.790861 9.790861,8 12,8 C14.209139,8 16,9.790861 16,12 C16,14.209139 14.209139,16 12,16 Z M12,14 C13.1045695,14 14,13.1045695 14,12 C14,10.8954305 13.1045695,10 12,10 C10.8954305,10 10,10.8954305 10,12 C10,13.1045695 10.8954305,14 12,14 Z" id="Combined-Shape" fill="#525A65" fill-rule="evenodd"></path>
                <path d="M0.00499895812,0.005 L0,23.995 L23.995,24 L24,0.005 L0.00499895812,0.005 Z" id="Path" stroke-opacity="0.01" stroke="#000000" stroke-width="0.01"></path>
            </g>
        </g>
    </g>
</svg>